<?xml version="1.0" encoding="utf-8"?>
<svg xmlns="http://www.w3.org/2000/svg" viewBox="264.1313 187.011 19.8381 19.8381" width="19.8381px" height="19.8381px"><path d="M 274.95 190.43 C 274.95 189.933 274.547 189.53 274.05 189.53 C 273.553 189.53 273.15 189.933 273.15 190.43 L 274.95 190.43 Z M 273.414 204.066 C 273.765 204.418 274.335 204.418 274.687 204.066 L 280.414 198.338 C 280.766 197.987 280.766 197.417 280.414 197.066 C 280.063 196.714 279.493 196.714 279.142 197.066 L 274.05 202.157 L 268.959 197.066 C 268.608 196.714 268.038 196.714 267.686 197.066 C 267.335 197.417 267.335 197.987 267.686 198.338 L 273.414 204.066 Z M 273.15 190.43 L 273.15 203.43 L 274.95 203.43 L 274.95 190.43 L 273.15 190.43 Z" fill="black" style="stroke-width: 1; transform-origin: 274.05px 196.93px;" transform="matrix(-0.70710701, -0.70710701, 0.70710701, -0.70710701, -0.00003569, 0.00003871)" id="object-0"/></svg>